<?xml version="1.0" encoding="utf-8"?>
<!-- Generator: Adobe Illustrator 27.8.0, SVG Export Plug-In . SVG Version: 6.00 Build 0)  -->
<svg version="1.1" id="Layer_1" xmlns="http://www.w3.org/2000/svg" xmlns:xlink="http://www.w3.org/1999/xlink" x="0px" y="0px"
	 width="86.7px" height="72.7px" viewBox="0 0 86.7 72.7" style="enable-background:new 0 0 86.7 72.7;" xml:space="preserve">
<style type="text/css">
	.st0{fill:#006EB1;}
	.st1{fill:#FFFFFF;}
</style>
<g id="Group_1311" transform="translate(-7.886 -6.614)">
	<g>
		<g id="Group_1310" transform="translate(7.886 6.614)">
			<path id="Path_649" class="st0" d="M0.3,18.5l0,0.7l-0.3,0.4l0,0.4l0.6,0.7l0,0.4c0,0.2,0,0.3,0,0.5c0.1,0.2,0.2,0.3,0.3,0.6
				l-0.4,0.4l0.3,0.2l0.6,0.2l0,0.5l-0.2,0.4l0.4,0.1l0.3,0.5l0.4,1l0.4,0.2l0.2,0.5l0.4,0.5l0.4,0c0-0.1,0-0.2,0-0.3l0.4,0l0.6,0.2
				c0,0.2,0.1,0.3,0.1,0.5l0.3-0.3L5.6,27L6,27.4c-0.1,0.2-0.1,0.3-0.1,0.5l0.7,0.3c0,0.2,0,0.3,0,0.5l-0.8,0.1l-0.7,0.1
				c0,0.2,0,0.2,0,0.4l-0.3,0.3C4.8,30,4.9,30.1,5,30.4l0.6,0l0.6,0c0,0.3,0,0.5-0.1,0.8c0,0.2,0,0.4,0,0.6c0.1,0.2,0.1,0.3,0.2,0.5
				l1-0.1c0.2-0.2,0.4-0.4,0.6-0.6l0.7-0.3c0,0.3,0,0.5-0.1,0.9l0.3,0.7l0.3-0.7l0.5-0.7l0.3-0.2l0.6,0.4c0,0.2,0,0.3,0,0.4L11,32
				c0,0.2,0,0.3,0,0.5l0.2,0.4c-0.1,0.2-0.1,0.3-0.1,0.4c0,0.2,0,0.3,0,0.5l-0.6,0.6c-0.3,0.3-0.4,0.4-0.7,0.7l0.2,0.7l0.9,0
				l0.4,0.3l-0.3,0.3l0.5,0.1c0.1,0.3,0.1,0.4,0.1,0.7l0.7-0.2c0,0.2-0.1,0.4-0.1,0.6l-1,0.7l-0.3,0.5c-0.2,0.5-0.3,0.8-0.5,1.4
				c-0.1,0.6-0.2,1-0.3,1.6l-0.1,0.9c0,0.5,0,0.8,0,1.3c0.1,0.4,0.1,0.6,0.2,1l-0.4,0.3H9.3l-0.1,0.6c0.1,0.4,0.1,0.6,0.2,1
				c0.1,0.3,0.1,0.4,0.1,0.7l0.3,0.6c0.1,0.2,0.1,0.3,0.2,0.5l0.4,0.2l0.7,0.2l0.9-0.2c0.1-0.2,0.2-0.3,0.3-0.5l0.6,0.1l0.4-0.5
				l0-0.5l0.5-0.2l0.3,0.5l0.4-0.6l0.6-0.1l-0.1,0.6l0.2,0.4l-0.3,0.5l0.1,0.6L15,49.3c0,0.2,0.1,0.3,0.1,0.5l0.5-0.3l0.7-0.2
				l0.2,0.5c0,0.3,0,0.5,0,0.8l-0.6,0.1l-0.4,0.5c-0.1,0.3-0.1,0.4-0.2,0.7l0.8-0.1c0,0.2,0,0.3-0.1,0.4c-0.1,0.2-0.1,0.3-0.2,0.5
				l-0.4,0.3c0,0.2,0,0.2,0,0.4l0.5,0.4l0.5,0l-0.1,0.7l0.5,0.4l0.1,0.4l-0.4,0.3l0.2,0.5l0.5,0.5c0.1,0.2,0.1,0.3,0.2,0.4l0,0.5
				l0.4,0l0.5,0.3c0,0.2,0,0.4,0,0.6l-0.2,0.4l-0.2,0.5l0.4,0.4l0.4,0l0.4-0.6l0.8,0l0.8,0l0.5,0.4l0.2,0.6l0.7,0l0.8,0.6l0.7,0.5
				l0.9-0.1l0.4,0.4l0.5-0.1l0.7-0.5l0.5,0.2l0.4,0.3l0.5-0.1l0.5,0.1l0.8,0.1l0.4,0.4c0.1-0.3,0.1-0.4,0.2-0.7l0.5-0.2l0.6-0.5
				l0.4-0.4l0.6-0.1l0.6-0.1c0,0.2,0,0.2,0,0.4l0.4-0.3c0.1,0.3,0.1,0.4,0.2,0.6l0.4,0.6l0.6,0.4l0.7-0.1c0-0.3,0-0.5,0-0.8l0.2-0.5
				l0.7-0.1l0.2-0.4L36,60l0.6,0.2l0.8-0.4l1.3-0.2l0.9,0.4l1,0.3l1.3,0l1.1,0l1.1-0.1l1,0.3l0.8,0.8l0.4,0.3l0.5-0.1l0.6-0.1
				l0.4-0.4l0.7-0.5l0.6-0.3l0.5,0.4l0.8,0.3c0,0.4,0,0.5,0.1,0.9l0.3,0.6l0.3,0.7c0,0.2,0,0.3,0,0.5c0,0.4,0,0.7-0.1,1.1
				c0.1,0.2,0.1,0.3,0.2,0.5l-0.3,0.8c0,0.3,0,0.5-0.1,0.8c0.1,0.4,0.1,0.6,0.1,1l-0.6,0.1l-0.6-0.6l-0.5-0.1
				c0.1,0.3,0.2,0.5,0.3,0.8l-0.3,0.4l0.4,0.2l-0.1,0.7c-0.1,0.2-0.2,0.3-0.3,0.4c0.1,0.5,0.1,0.7,0.2,1.2c0,0.3,0.1,0.5,0.1,0.8
				l0.5,0.1l0.8-0.1l0.4-0.1l0.6,0.3c0,0.2,0,0.3,0.1,0.4l1.2,0.1l0.8-0.1l0.5,0c0-0.2,0-0.2,0-0.4l0.3-0.5l0.2,0.5l0.3,0.5l1,0
				l0.9-0.1l0.7-0.3l0.9,0.1l0.6,0.3l0.7,0l0.7-0.4l0.6,0.3l0.7,0l0.4-0.1l-0.2-0.4l0.9-0.6l0.7-0.4c0-0.2,0-0.4,0-0.6l0.4-0.2
				l0.4,0.3l0.6-0.1l0.5,0c0,0.2,0,0.3,0,0.4l0.5,0.2c0.1-0.2,0.1-0.3,0.2-0.5l0.6-0.5l0.7-0.2l0.5,0.1c0,0.2,0.1,0.3,0.1,0.5
				l0.4-0.2c0.1-0.2,0.1-0.2,0.2-0.4l0.7-0.3l0.6-0.3l0.4-0.4l0.6-0.3l0.5-0.1l0.4-0.4l0.6-0.3l1-0.8l0.7-0.7l1-0.3l0.4-0.6l0.2-0.7
				l0.3-0.3l0.3-0.6l0.4-0.4c0-0.3,0.1-0.4,0.1-0.7l0-0.8l-0.6-0.6c0-0.2-0.1-0.3-0.1-0.4c0.1-0.3,0.2-0.5,0.3-0.9l0.2,0.5l0.5-0.1
				l0.6-0.4l0.3-0.3c0.2-0.2,0.3-0.3,0.4-0.6c0-0.3,0-0.5,0-0.9c0.1-0.3,0.1-0.4,0.2-0.7l0.4-0.7l-0.2-1l-0.1-0.7l0.2-1.1
				c0.1-0.3,0.2-0.5,0.3-0.9l1-0.1c0.1-0.3,0.2-0.5,0.3-0.8c0.1-0.3,0.2-0.5,0.3-0.8c0-0.2,0.1-0.2,0.1-0.4l0.6-0.1l0.1,0.5l0.4-0.5
				c0.1-0.3,0.1-0.5,0.2-0.8l-0.1-0.7l-0.5-0.5l-0.6-0.5c0-0.3,0-0.5,0.1-0.9l0.4-0.5l0.4-0.5c0.1-0.3,0.2-0.4,0.2-0.7
				c0-0.3-0.1-0.5-0.1-0.9l0.2-0.8l0.2-0.6l0.4-0.3l0.1,0.4l0.5-0.1l0.6-0.5c-0.1-0.1-0.1-0.2-0.2-0.3L84,43.1
				c0-0.2-0.1-0.4-0.1-0.6l0.4-0.2c0-0.2,0-0.3,0.1-0.5l-0.3-0.2c0-0.3,0-0.5,0-0.8l0.2-0.4l0.3-0.5c0,0,0-0.1,0-0.1
				c0-0.1,0.1-0.1,0.1-0.2c0,0.2,0.1,0.3,0.1,0.5l0.3,0.2l0.2-0.3l0.3-0.2l0.1,0.3l0.4,0.1l0.1-0.4c0.1-0.2,0.1-0.4,0.1-0.6l0.2-0.2
				l-0.3-0.1L86,39c0,0.2,0.1,0.3,0.1,0.5l-0.4,0L85.3,39l-0.1-0.6l-0.3-0.2l-0.5,0.3l-0.5,0c0-0.2,0-0.4,0-0.6c0-0.2,0-0.2,0-0.4
				l-0.4,0.1l-0.5-0.1l-0.4-0.2l-0.3-0.3c0-0.1,0-0.2-0.1-0.4c0-0.2,0-0.3,0-0.4c0-0.2,0-0.3,0-0.5c-0.1-0.1-0.1-0.2-0.2-0.3
				L81.8,35l-0.2-0.6c-0.1-0.3-0.1-0.4-0.2-0.7c-0.1-0.2-0.1-0.3-0.1-0.6c0-0.1-0.1-0.2-0.1-0.3l0.6-0.2l0.5-0.5c0-0.2,0-0.3,0-0.6
				l-0.3-0.5l-0.3-0.3l-0.4-0.4l-0.3-0.3c-0.1-0.3-0.1-0.4-0.1-0.7L80.7,29l-0.5-0.3c0-0.3,0.1-0.4,0.1-0.7c0-0.2-0.1-0.3-0.1-0.5
				l0.5-0.1l-0.4-0.5l-0.4-0.2l-0.5,0.7l-0.1,0.4l-0.3,0.4L78.8,28l-0.4-0.1l-0.5-0.4l-0.5-0.6L77,26.5l-0.6,0l-0.5-0.2l-0.6-0.2
				l-0.6-0.3l-0.3-0.3L74,25.3L73.7,25l-0.2-0.5L73,24.2l0.4-0.2l0.3-0.4l0.2-0.3c0.1-0.1,0.1-0.2,0.2-0.3c0-0.3,0-0.4,0-0.7l-0.1-1
				c0-0.2,0-0.4,0-0.6l0.4-0.3l0.4-0.2l0.3-0.1l0.1-0.4l-0.4-0.2l-0.5-0.4l-0.2-0.2c0-0.2-0.1-0.3-0.1-0.5c0-0.2-0.1-0.3-0.1-0.5
				l-0.3-0.7c-0.1-0.3-0.1-0.4-0.2-0.7l-0.3-0.7l-0.5-0.5c-0.1-0.3-0.2-0.4-0.3-0.7l-0.3-0.7l-0.4-1c-0.1-0.2-0.1-0.3-0.2-0.6
				c0-0.4-0.1-0.5-0.1-0.9l0-0.6l0.2-0.2c0-0.2,0.1-0.3,0.1-0.5l-0.1-0.8c-0.1-0.2-0.1-0.3-0.2-0.5l-0.4-0.6l-0.6-0.4l-0.6-0.3
				l-0.4-0.2l-0.5-0.1l-0.4,0l-0.3,0.1L68,7.7c0,0.1-0.1,0.2-0.1,0.3l-0.4,0c0-0.2,0-0.2-0.1-0.4c0-0.2,0-0.3,0-0.5l0.1-0.5
				l-0.2-0.2l-0.6,0.1l-0.4,0c0,0.1,0,0.2-0.1,0.3L65.9,7l-0.3-0.4l-0.4-0.3l-0.6-0.2L64,6.1l-0.8-0.2l-0.6-0.2L62,5.7l-0.9,0
				l-0.5,0.2l-0.5,0l-0.3,0.2l-0.3,0.4l-0.5,0l-0.3-0.2c0-0.3-0.1-0.4-0.1-0.7c0-0.1,0-0.2,0.1-0.3l-0.2-0.3l-0.2,0.2L58,4.6
				c0-0.2,0-0.4,0-0.6c0-0.3-0.1-0.4-0.1-0.7c-0.1-0.2-0.1-0.3-0.2-0.4l-0.3,0l-0.6,0.3l-0.3,0.3l-0.4,0.1l-0.2-0.5l-0.5-0.3l-0.6,0
				l-0.7,0.3l-0.4,0.2L53,3.4l-0.6,0l-0.8-0.4l-1-0.4l-0.5-0.4l-0.8-0.4l-1.5-0.7l-0.4-0.4L47,0.7l-0.4,0l-0.4-0.4L46,0l-0.5,0
				L45,0.3l-0.2,0.3l-0.3,0.2l-0.5,0.1l-0.5-0.1l-0.5,0l-0.5,0h-0.3L42,0.5l-0.3,0.4l-0.4-0.1l-0.5-0.2l-1.1,0.2l-0.4,0.1L38.8,1
				l-0.3-0.2l-0.4-0.2l-0.4-0.1l-0.5-0.1l-0.5,0.1l-0.4,0.5L36,1.4l-0.3,0.3l-0.4,0l-0.7,0.1l-0.6,0.1l-0.3,0.2
				c-0.1,0.1-0.2,0.2-0.3,0.4l-0.3,0.3l-0.4,0.3l-0.6,0.3l-0.5,0.4l-0.2,0.4l-0.3,0.4L30.7,5c0,0.2,0,0.4-0.1,0.6c0,0.1,0,0.2,0,0.3
				l-0.2,0.6c-0.1,0.3-0.2,0.5-0.3,0.8l-0.3,0.4l-0.4,0.9L29.1,9c-0.2,0.3-0.3,0.5-0.5,0.8c0,0.2,0.1,0.2,0.1,0.4l-0.3,0.4l-0.2,0.6
				l-0.1,0.5c0,0.3,0,0.4,0,0.6l-0.4,0.3l-0.3,0.3c0,0.2,0,0.3-0.1,0.5l0.3,0.4l0.9,0.5l0.8,0L29,14.8c-0.1,0.2-0.1,0.3-0.2,0.6
				l-0.4,0.4c0,0.2-0.1,0.2-0.1,0.4c-0.1,0.3-0.1,0.5-0.1,0.9l-0.4,0.7c-0.1,0.3-0.1,0.4-0.2,0.7c-0.1,0.2-0.1,0.3-0.2,0.5l-0.1,0.5
				c0,0.3,0,0.4,0.1,0.7l-0.1,0.6c-0.1,0.3-0.1,0.5-0.2,0.8l-0.4,0.1l-0.4,0.3l-0.5,0.3l-0.2,0.3l-0.1,0.4l-0.2,0.7
				c0,0.2,0,0.2,0,0.4l-0.5,0.2l-0.4,0.2c0,0.4,0,0.5,0,0.9c0,0.2,0,0.3-0.1,0.5l-0.4-0.1l-0.4-0.6l-0.4-0.5l-0.3,0l-0.3,0.1
				l-0.8,0.4l-0.6,0.1l-0.8,0.2l-0.7,0.3l-0.6,0.4l-0.7,0.4l-0.6,0.2l-0.6,0.4l-0.6,0.1l-0.6,0.1c-0.1-0.3-0.2-0.5-0.4-0.8l-0.7-0.8
				L14,25.4L13.1,25l-1.2-0.4L11,24.5l-1-0.2L9.2,24l-1-0.2l-0.5-0.4L7.3,23c-0.1-0.3-0.1-0.4-0.1-0.7c0-0.1,0-0.2-0.1-0.3L6.4,22
				l-0.9,0.1l-0.4-0.2L5,21.6l-0.5-0.4L4,20.8l-0.4,0l-0.6-0.3L2.6,20l-0.1-0.5L1.9,19l-0.3-0.2c0-0.2,0-0.3,0-0.5l0.1-0.6l0.2-0.2
				l0.3-0.1l-0.3-0.2l-0.6,0l0.2,0.4l-0.3,0.2c-0.1-0.2-0.2-0.3-0.3-0.5l-0.4-0.6l0.3-0.2l-0.1-0.3l-0.5,0.3
				c-0.1,0.2-0.1,0.3-0.2,0.5c0,0.3-0.1,0.4-0.1,0.7L0.3,18.5"/>
			<path id="Path_650" class="st1" d="M31.7,34.6h-3.6v-0.8c0-0.7-0.2-1.5-0.6-2.1c-0.4-0.6-1.2-1-1.9-0.9c-0.4,0-0.8,0.1-1.2,0.3
				c-0.3,0.2-0.6,0.4-0.7,0.7c-0.2,0.3-0.3,0.7-0.4,1c-0.1,0.4-0.1,0.8-0.1,1.2c0,0.4,0,0.8,0.1,1.2c0,0.3,0.1,0.6,0.3,0.9
				c0.2,0.3,0.4,0.5,0.6,0.6c0.3,0.2,0.7,0.4,1.1,0.6l2.7,1.1c0.7,0.2,1.3,0.6,1.9,1.1c0.5,0.4,0.9,0.9,1.1,1.4
				c0.3,0.6,0.5,1.2,0.5,1.9c0.1,0.8,0.1,1.6,0.1,2.4c0,1-0.1,2-0.3,2.9c-0.2,0.8-0.5,1.6-1,2.3c-0.5,0.7-1.2,1.2-1.9,1.5
				c-0.9,0.4-1.9,0.6-2.9,0.6c-0.8,0-1.7-0.1-2.4-0.5c-2.2-0.9-3.7-3.1-3.7-5.5v-1.3H23v1.1c0,0.6,0.2,1.3,0.6,1.8
				c0.5,0.6,1.2,0.9,1.9,0.8c0.5,0,1-0.1,1.4-0.3c0.3-0.2,0.6-0.4,0.8-0.7c0.2-0.4,0.3-0.8,0.3-1.2c0-0.5,0.1-1,0.1-1.5
				c0-0.5,0-1.1-0.1-1.6c0-0.4-0.1-0.7-0.3-1c-0.2-0.3-0.4-0.5-0.6-0.6c-0.3-0.2-0.7-0.4-1.1-0.5l-2.6-1.1c-1.3-0.4-2.4-1.3-3.1-2.5
				c-0.6-1.2-0.8-2.6-0.8-3.9c0-0.9,0.1-1.8,0.4-2.7c0.2-0.8,0.6-1.5,1.1-2.2c0.5-0.6,1.2-1.1,1.9-1.5c0.8-0.4,1.8-0.6,2.7-0.5
				c0.8,0,1.7,0.2,2.4,0.5c0.7,0.3,1.4,0.8,1.9,1.3c0.5,0.5,0.9,1.1,1.2,1.8c0.3,0.6,0.4,1.3,0.4,2.1L31.7,34.6z"/>
			<path id="Path_651" class="st1" d="M45.7,46.8c0,0.8-0.1,1.5-0.4,2.2c-0.3,0.7-0.7,1.3-1.2,1.8c-0.5,0.5-1.1,1-1.8,1.3
				c-0.7,0.3-1.5,0.5-2.2,0.5c-0.7,0-1.4-0.1-2.1-0.3c-0.7-0.2-1.3-0.5-1.9-1c-0.6-0.5-1.1-1.1-1.4-1.8c-0.4-0.9-0.6-1.9-0.5-2.8V33
				c0-0.8,0.1-1.6,0.4-2.3c0.3-0.7,0.7-1.3,1.2-1.8c0.5-0.5,1.2-0.9,1.8-1.2c0.8-0.3,1.6-0.4,2.4-0.4c0.8,0,1.6,0.1,2.3,0.4
				c0.7,0.3,1.3,0.7,1.8,1.2c0.5,0.5,0.9,1.2,1.2,1.9c0.3,0.8,0.4,1.6,0.4,2.4v1.4h-3.6v-1.2c0-0.7-0.2-1.3-0.6-1.8
				c-0.4-0.5-1-0.8-1.6-0.8c-0.7-0.1-1.4,0.2-1.8,0.8c-0.3,0.6-0.5,1.4-0.4,2.1v12.8c0,0.6,0.1,1.3,0.5,1.8c0.4,0.5,1,0.8,1.7,0.7
				c0.3,0,0.5,0,0.8-0.1c0.3-0.1,0.5-0.2,0.7-0.4c0.2-0.2,0.4-0.5,0.5-0.8c0.2-0.4,0.2-0.8,0.2-1.2v-1.2h3.6L45.7,46.8z"/>
			<path id="Path_652" class="st1" d="M52.6,27.4h3l5.6,25h-3.6L56.5,47h-4.9l-1.1,5.4H47L52.6,27.4z M54.1,34.6L54.1,34.6l-1.8,9.1
				h3.6L54.1,34.6z"/>
			<path id="Path_653" class="st1" d="M62.9,27.4h5.8c4.2,0,6.3,2.4,6.3,7.3c0,1.3-0.2,2.6-0.7,3.7c-0.5,1.1-1.3,2-2.4,2.5l3.9,11.4
				H72l-3.3-10.7h-2.1v10.7h-3.6V27.4z M66.5,38.6h2c0.5,0,1-0.1,1.5-0.3c0.4-0.2,0.7-0.4,0.9-0.8c0.2-0.4,0.3-0.8,0.4-1.2
				c0.1-1.1,0.1-2.2,0-3.3c-0.1-0.4-0.2-0.9-0.4-1.2c-0.2-0.3-0.6-0.6-0.9-0.8c-0.5-0.2-1-0.3-1.6-0.2h-1.9V38.6z"/>
		</g>
	</g>
</g>
</svg>
